<?xml version="1.0" encoding="utf-8"?>
<!-- Generator: Adobe Illustrator 16.0.0, SVG Export Plug-In . SVG Version: 6.00 Build 0)  -->
<!DOCTYPE svg PUBLIC "-//W3C//DTD SVG 1.1//EN" "http://www.w3.org/Graphics/SVG/1.1/DTD/svg11.dtd">
<svg version="1.1" id="Layer_1" xmlns="http://www.w3.org/2000/svg" xmlns:xlink="http://www.w3.org/1999/xlink" x="0px" y="0px"
	 width="191.99px" height="217.489px" viewBox="626.564 -3.404 191.99 217.489"
	 enable-background="new 626.564 -3.404 191.99 217.489" xml:space="preserve">
<g>
	<g>
		<path fill="none" d="M736.577,105.055c12.054,0,17.812,5.372,17.174,13.837c14.094-11.054,31.422-25.979,35.703-34.819
			c1.739-3.585,1.149-5.884-1.787-7.024c-10.304-4.001-23.817-4.282-46.651-0.967c-6.396,0.929-12.325,3.33-18.133,7.343
			c-10.42,7.193-20.564,19.658-28.663,34.984C709.253,110.219,724.751,105.055,736.577,105.055z"/>
	</g>
	<g>
		<path fill="#929292" d="M800.451,80.567c2.86-5.899,1.914-9.82-2.812-11.655c-11.258-4.372-25.797-4.712-50.172-1.173
			c-9.41,1.367-19.274,5.468-28.532,11.859c-18.625,12.862-30.734,31.76-38.089,46.999c4.34-2.966,8.835-5.716,13.376-8.189
			c8.099-15.327,18.242-27.792,28.661-34.986c5.809-4.012,11.737-6.413,18.135-7.342c22.834-3.314,36.345-3.035,46.65,0.967
			c2.937,1.14,3.526,3.438,1.788,7.024c-4.283,8.84-21.609,23.765-35.702,34.818c-0.203,2.654-1.016,5.602-2.475,8.791
			c4.492-3.38,10.4-7.93,16.6-13.034C785.597,100.068,796.557,88.602,800.451,80.567z"/>
	</g>
	<g>
		<path fill="#929292" d="M733.16,108.679c-20.038,0-51.687,16.303-70.551,36.341c-18.864,20.039-17.905,36.342,2.135,36.342
			c20.038,0,51.684-16.303,70.549-36.342C754.157,124.981,753.199,108.679,733.16,108.679z"/>
	</g>
	<path fill="none" d="M733.16,108.679c-20.038,0-51.687,16.303-70.551,36.341c-18.864,20.039-17.905,36.342,2.135,36.342
		c20.038,0,51.684-16.303,70.549-36.342C754.157,124.981,753.199,108.679,733.16,108.679z"/>
</g>
</svg>
