<svg xmlns="http://www.w3.org/2000/svg" xmlns:xlink="http://www.w3.org/1999/xlink" version="1.1" x="0px" y="0px" viewBox="0 0 100 125" enable-background="new 0 0 100 100" xml:space="preserve"><g><g><path fill="none" d="M51.701,33.672c9.976,0,18.928,4.446,24.997,11.453c3.052-9.15,5.766-21.502,2.422-28.818    c-1.356-2.968-3.632-4.87-6.952-5.814c-11.646-3.312-23.049-3.544-39.362-0.8c-4.57,0.769-7.609,2.756-9.291,6.076    c-3.017,5.954-1.701,16.27,3.535,28.955C33.112,37.947,41.915,33.672,51.701,33.672z"/></g><g><path d="M85.49,13.405c-2.229-4.882-6.067-8.127-11.408-9.646c-12.725-3.618-25.021-3.9-42.438-0.97    c-6.723,1.131-11.693,4.525-14.373,9.815c-5.394,10.645-0.696,26.286,5.09,38.898c1.281-2.456,2.858-4.732,4.689-6.779    c-5.236-12.685-6.552-23.001-3.535-28.955c1.682-3.32,4.721-5.307,9.291-6.076c16.313-2.744,27.715-2.512,39.362,0.8    c3.32,0.944,5.596,2.846,6.952,5.814c3.344,7.316,0.63,19.668-2.422,28.818c1.899,2.194,3.524,4.635,4.801,7.274    c1.088-2.795,2.427-6.564,3.584-10.787C88.389,29.546,88.525,20.055,85.49,13.405z"/></g><g><path d="M51.701,36.672c-16.585,0-30.079,13.493-30.079,30.078s13.493,30.078,30.079,30.078c16.585,0,30.076-13.493,30.076-30.078    S68.286,36.672,51.701,36.672z"/></g><path fill="none" d="M51.701,36.672c-16.585,0-30.079,13.493-30.079,30.078s13.493,30.078,30.079,30.078   c16.585,0,30.076-13.493,30.076-30.078S68.286,36.672,51.701,36.672z"/></g><text x="0" y="115" fill="#000000" font-size="5px" font-weight="bold" font-family="'Helvetica Neue', Helvetica, Arial-Unicode, Arial, Sans-serif">Created by Dávid Gladiš</text><text x="0" y="120" fill="#000000" font-size="5px" font-weight="bold" font-family="'Helvetica Neue', Helvetica, Arial-Unicode, Arial, Sans-serif">from the Noun Project</text></svg>